<mxfile host="65bd71144e">
    <diagram id="tLhXS8uEftU3nalElyTA" name="Page-1">
        <mxGraphModel dx="526" dy="-585" grid="1" gridSize="10" guides="1" tooltips="1" connect="1" arrows="1" fold="1" page="1" pageScale="1" pageWidth="850" pageHeight="1100" math="0" shadow="0">
            <root>
                <mxCell id="0"/>
                <mxCell id="1" parent="0"/>
                <mxCell id="2" value="" style="group" vertex="1" connectable="0" parent="1">
                    <mxGeometry x="410" y="1360" width="80" height="80" as="geometry"/>
                </mxCell>
                <mxCell id="3" value="&lt;span style=&quot;font-size: 14px;&quot;&gt;es &lt;br&gt;un&lt;/span&gt;" style="triangle;whiteSpace=wrap;html=1;fontSize=16;rotation=90;horizontal=0;" vertex="1" parent="2">
                    <mxGeometry x="10" y="10" width="60" height="80" as="geometry"/>
                </mxCell>
                <mxCell id="4" value="" style="ellipse;whiteSpace=wrap;html=1;" vertex="1" parent="2">
                    <mxGeometry x="30" width="20" height="20" as="geometry"/>
                </mxCell>
                <mxCell id="5" value="" style="group" vertex="1" connectable="0" parent="1">
                    <mxGeometry x="230" y="1360" width="80" height="80" as="geometry"/>
                </mxCell>
                <mxCell id="6" value="&lt;span style=&quot;font-size: 14px;&quot;&gt;es &lt;br&gt;un&lt;/span&gt;" style="triangle;whiteSpace=wrap;html=1;fontSize=16;rotation=90;horizontal=0;" vertex="1" parent="5">
                    <mxGeometry x="10" y="10" width="60" height="80" as="geometry"/>
                </mxCell>
                <mxCell id="7" value="" style="group" vertex="1" connectable="0" parent="1">
                    <mxGeometry x="320" y="1240" width="80" height="80" as="geometry"/>
                </mxCell>
                <mxCell id="8" value="&lt;span style=&quot;font-size: 14px;&quot;&gt;es &lt;br&gt;un&lt;/span&gt;" style="triangle;whiteSpace=wrap;html=1;fontSize=16;rotation=90;horizontal=0;" vertex="1" parent="7">
                    <mxGeometry x="10" y="-10" width="60" height="80" as="geometry"/>
                </mxCell>
                <mxCell id="9" value="" style="curved=1;endArrow=none;html=1;rounded=0;fontFamily=Helvetica;fontSize=12;fontColor=default;endFill=0;" edge="1" parent="7">
                    <mxGeometry width="50" height="50" relative="1" as="geometry">
                        <mxPoint x="-20" y="50" as="sourcePoint"/>
                        <mxPoint x="100" y="50" as="targetPoint"/>
                        <Array as="points">
                            <mxPoint x="10" y="80"/>
                            <mxPoint x="70" y="80"/>
                        </Array>
                    </mxGeometry>
                </mxCell>
                <mxCell id="10" value="" style="group" vertex="1" connectable="0" parent="1">
                    <mxGeometry x="790" y="1360" width="80" height="100" as="geometry"/>
                </mxCell>
                <mxCell id="11" value="" style="group" vertex="1" connectable="0" parent="10">
                    <mxGeometry width="80" height="80" as="geometry"/>
                </mxCell>
                <mxCell id="12" value="&lt;span style=&quot;font-size: 14px;&quot;&gt;es &lt;br&gt;un&lt;/span&gt;" style="triangle;whiteSpace=wrap;html=1;fontSize=16;rotation=90;horizontal=0;" vertex="1" parent="11">
                    <mxGeometry x="10" y="10" width="60" height="80" as="geometry"/>
                </mxCell>
                <mxCell id="13" value="" style="ellipse;whiteSpace=wrap;html=1;" vertex="1" parent="11">
                    <mxGeometry x="30" width="20" height="20" as="geometry"/>
                </mxCell>
                <mxCell id="14" value="" style="curved=1;endArrow=none;html=1;rounded=0;fontFamily=Helvetica;fontSize=12;fontColor=default;endFill=0;" edge="1" parent="10">
                    <mxGeometry width="50" height="50" relative="1" as="geometry">
                        <mxPoint x="-20" y="70" as="sourcePoint"/>
                        <mxPoint x="100" y="70" as="targetPoint"/>
                        <Array as="points">
                            <mxPoint x="10" y="100"/>
                            <mxPoint x="70" y="100"/>
                        </Array>
                    </mxGeometry>
                </mxCell>
                <mxCell id="15" value="Arrastra, uno a uno de forma separada, las figuras a la zona de la izquierda, donde dice &quot;Arrastrar elementos aquí&quot; (bajo la sección de &quot;Bloc de notas&quot;)" style="text;html=1;strokeColor=none;fillColor=none;align=left;verticalAlign=middle;whiteSpace=wrap;rounded=0;fontSize=15;" vertex="1" parent="1">
                    <mxGeometry x="210" y="1500" width="720" height="50" as="geometry"/>
                </mxCell>
            </root>
        </mxGraphModel>
    </diagram>
</mxfile>